<svg width="auto" height="auto" viewBox="0 0 32 32" fill="none" xmlns="http://www.w3.org/2000/svg">
	<path fill-rule="evenodd" clip-rule="evenodd" d="M16.1067 32C15.0459 32 14.0284 31.5785 13.2782 30.8284C12.5281 30.0783 12.1067 29.0608 12.1067 28V27.8987C12.1003 27.7269 12.0431 27.5609 11.9422 27.4219C11.8413 27.2827 11.7013 27.1767 11.54 27.1173L11.4667 27.0867C11.3091 27.0171 11.1344 26.9961 10.9649 27.0263C10.7953 27.0564 10.6386 27.1364 10.5147 27.256L10.4413 27.3293C9.69077 28.0797 8.67286 28.5012 7.61154 28.5011C6.5502 28.5009 5.53239 28.0792 4.782 27.3287C4.03161 26.5781 3.61012 25.5601 3.61025 24.4988C3.61037 23.4375 4.03211 22.4197 4.78267 21.6693L4.856 21.596C4.97561 21.4721 5.05562 21.3153 5.08578 21.1459C5.11594 20.9763 5.0949 20.8016 5.02534 20.644V20.6307C4.95875 20.4752 4.84818 20.3428 4.70722 20.2493C4.56624 20.156 4.40107 20.106 4.232 20.1053H4C2.93913 20.1053 1.92172 19.6839 1.17157 18.9337C0.421426 18.1836 0 17.1663 0 16.1053C0 15.0445 0.421426 14.0271 1.17157 13.2769C1.92172 12.5268 2.93913 12.1053 4 12.1053H4.10133C4.27308 12.099 4.43907 12.0417 4.57819 11.9408C4.71731 11.8399 4.82329 11.6999 4.88267 11.5387C4.89244 11.512 4.90311 11.4858 4.91467 11.46C4.98423 11.3025 5.00527 11.1277 4.97511 10.9582C4.94495 10.7886 4.86496 10.6319 4.74533 10.508L4.66667 10.436C3.91628 9.68508 3.49493 8.66683 3.49531 7.60525C3.49568 6.54367 3.91775 5.52572 4.66867 4.77533C5.41959 4.02495 6.43784 3.6036 7.49941 3.60397C8.561 3.60435 9.57895 4.02641 10.3293 4.77733L10.4027 4.85067C10.5266 4.97029 10.6833 5.05028 10.8529 5.08044C11.0224 5.1106 11.1971 5.08956 11.3547 5.02C11.4403 4.98228 11.5297 4.95368 11.6213 4.93467C11.7376 4.85544 11.8329 4.74909 11.8988 4.6248C11.9648 4.50052 11.9995 4.36204 12 4.22133V4C12 2.93913 12.4214 1.92172 13.1716 1.17157C13.9217 0.421427 14.9392 0 16 0C17.0608 0 18.0783 0.421427 18.8284 1.17157C19.5785 1.92172 20 2.93913 20 4V4.12C20.0017 4.28815 20.0523 4.45219 20.1455 4.59211C20.2388 4.73201 20.3708 4.84177 20.5253 4.908H20.5387C20.6963 4.97756 20.8709 4.9986 21.0405 4.96844C21.21 4.93828 21.3668 4.85828 21.4907 4.73867L21.564 4.66533C21.9356 4.29379 22.3768 3.99907 22.8624 3.79801C23.3479 3.59696 23.8683 3.49352 24.3939 3.49359C24.9193 3.49364 25.4397 3.59721 25.9252 3.79837C26.4107 3.99955 26.8517 4.29436 27.2233 4.666C27.5949 5.03764 27.8896 5.47883 28.0907 5.96436C28.2917 6.44991 28.3952 6.97029 28.3951 7.4958C28.3951 8.02132 28.2915 8.54168 28.0903 9.02717C27.8891 9.51267 27.5943 9.95377 27.2227 10.3253L27.1493 10.3987C27.0297 10.5226 26.9497 10.6793 26.9196 10.8489C26.8895 11.0184 26.9104 11.1931 26.98 11.3507C27.0177 11.4363 27.0463 11.5257 27.0653 11.6173C27.1441 11.7344 27.2503 11.8304 27.3745 11.8971C27.4989 11.9638 27.6376 11.9991 27.7787 12H28C29.0608 12 30.0783 12.4214 30.8284 13.1716C31.5785 13.9217 32 14.9392 32 16C32 17.0608 31.5785 18.0783 30.8284 18.8284C30.0783 19.5785 29.0608 20 28 20H27.88C27.7119 20.0017 27.5479 20.0523 27.4079 20.1455C27.268 20.2388 27.1583 20.3708 27.092 20.5253V20.5387C27.0224 20.6963 27.0015 20.8709 27.0316 21.0405C27.0617 21.21 27.1417 21.3668 27.2613 21.4907L27.3347 21.564C27.7063 21.9356 28.0009 22.3768 28.202 22.8624C28.4031 23.3479 28.5065 23.8683 28.5064 24.3939C28.5064 24.9193 28.4028 25.4397 28.2016 25.9252C28.0004 26.4107 27.7056 26.8517 27.334 27.2233C26.9624 27.5949 26.5212 27.8896 26.0356 28.0907C25.5501 28.2917 25.0297 28.3952 24.5041 28.3951C23.9787 28.3951 23.4583 28.2915 22.9728 28.0903C22.4873 27.8891 22.0463 27.5943 21.6747 27.2227L21.6013 27.1493C21.4775 27.0297 21.3207 26.9497 21.1512 26.9196C20.9816 26.8895 20.8069 26.9104 20.6493 26.98H20.636C20.4805 27.0465 20.3481 27.1572 20.2547 27.2981C20.1613 27.4391 20.1113 27.6043 20.1107 27.7733V28C20.1107 29.0608 19.6892 30.0783 18.9391 30.8284C18.1889 31.5785 17.1715 32 16.1107 32H16.1067ZM16 23C19.866 23 23 19.866 23 16C23 12.134 19.866 9 16 9C12.134 9 9 12.134 9 16C9 19.866 12.134 23 16 23Z" fill="white"/>
</svg>
