<svg width="auto" height="auto" viewBox="0 0 30 30" fill="none" xmlns="http://www.w3.org/2000/svg">
	<path d="M5.72727 29V18.5C5.72727 17.9477 5.27956 17.5 4.72727 17.5H1.70767C0.943336 17.5 0.461568 16.6773 0.835552 16.0107L9.53166 0.510707C9.70862 0.195287 10.0421 0 10.4038 0H17C17.5523 0 18 0.447716 18 1V29C18 29.5523 17.5523 30 17 30H6.72727C6.17499 30 5.72727 29.5523 5.72727 29Z" fill="white"/>
	<path d="M20 29V7.57579C20 6.84277 20.7626 6.35885 21.4258 6.67097L28.4258 9.9651C28.7763 10.13 29 10.4826 29 10.8699V29C29 29.5523 28.5523 30 28 30L21 30C20.4477 30 20 29.5523 20 29Z" fill="#7394FD"/>
</svg>
